<svg width="351" height="163" viewBox="0 0 351 163" fill="none" xmlns="http://www.w3.org/2000/svg">
<g id="Frame" clip-path="url(#clip0_122_64)">
<path id="Vector" d="M60.5242 162.329C42.1135 162.329 27.4235 157.979 16.4541 149.258C5.48469 140.558 0 127.05 0 108.734V1.55508H19.8807V106.742C19.8807 132.437 33.6482 145.274 61.1933 145.274C88.7385 145.274 101.178 132.427 101.178 106.742V1.55508H121.059V108.734C121.059 126.897 115.503 140.365 104.381 149.157C93.26 157.938 78.6511 162.329 60.5344 162.329H60.5242Z" fill="white"/>
<path id="Vector_2" d="M198.807 4.4315C204.404 4.4315 209.037 5.06167 212.727 6.31184C216.407 7.57218 219.428 9.15776 221.78 11.0686C223.696 12.5424 225.237 14.1686 226.423 15.9371C227.599 17.7057 228.481 19.4844 229.08 21.2529C229.668 23.0215 229.962 24.729 229.962 26.3451C229.962 30.0346 228.674 32.9212 226.099 34.9845C223.524 37.0579 220.685 38.0845 217.593 38.0845C214.501 38.0845 211.997 37.1291 209.645 35.2081C207.283 33.2871 206.107 30.553 206.107 27.0159C206.107 23.7736 207.212 20.9988 209.422 18.7119C211.632 16.425 214.43 15.1342 217.816 14.8394C217.228 12.9184 215.424 11.2617 212.403 9.85908C209.381 8.45644 205.59 7.75513 201.028 7.75513C193.515 7.75513 187.372 10.0115 182.586 14.5142C177.801 19.0168 175.409 25.5523 175.409 34.1104C175.409 38.2471 176.179 42.455 177.73 46.7341C179.281 51.0131 182.262 55.2312 186.672 59.3577C189.176 58.9105 191.751 58.5853 194.407 58.3617C197.053 58.1381 199.051 58.0263 200.369 58.0263C203.015 58.0263 205.154 58.4735 206.776 59.3577C208.398 60.242 209.209 61.5023 209.209 63.1184C209.209 64.4499 208.662 65.4866 207.557 66.2184C206.451 66.9604 204.941 67.3263 203.025 67.3263C200.227 67.3263 197.277 66.6961 194.195 65.446C191.102 64.1958 188.669 63.1997 186.905 62.4578C178.359 64.9683 171.445 69.0644 166.143 74.746C160.84 80.4277 158.194 88.4471 158.194 98.7737C158.194 109.1 160.84 117.597 166.143 124.682C171.445 131.766 178.552 137.194 187.463 140.954C196.374 144.715 206.35 146.605 217.39 146.605C225.197 146.605 232.598 145.681 239.593 143.841C246.588 142.001 252.772 139.298 258.145 135.76C263.519 132.213 267.756 127.975 270.848 123.025C273.941 118.085 275.492 112.434 275.492 106.082C275.492 103.276 274.904 99.6986 273.728 95.3383C272.552 90.9881 270.119 86.6989 266.438 82.491C262.758 78.2831 257.081 75.0001 249.427 72.6319L252.073 70.4162C262.819 73.6686 270.483 78.8726 275.046 86.0281C279.608 93.1937 281.889 101.203 281.889 110.056C281.889 118.909 279.233 127.406 273.941 135.527C268.638 143.648 260.984 150.254 250.968 155.347C240.951 160.439 228.806 162.99 214.521 162.99C204.951 162.99 195.857 161.73 187.24 159.229C178.622 156.719 171.009 153.07 164.379 148.262C157.748 143.465 152.527 137.671 148.695 130.882C144.863 124.092 142.947 116.418 142.947 107.85C142.947 99.8816 144.488 93.0514 147.59 87.3595C150.682 81.6779 154.514 76.9923 159.076 73.2926C163.638 69.6031 168.211 66.7571 172.773 64.765C177.335 62.7728 181.015 61.4109 183.813 60.6689C178.957 58.4531 174.861 55.8308 171.556 52.802C168.241 49.7731 165.737 46.4596 164.044 42.8412C162.351 39.2229 161.499 35.6451 161.499 32.0979C161.499 28.5507 162.31 25.1254 163.932 21.8018C165.555 18.4781 167.907 15.4899 170.999 12.8371C174.091 10.1742 177.953 8.11087 182.597 6.63709C187.24 5.16331 192.643 4.42134 198.828 4.42134L198.807 4.4315ZM279.212 0C288.337 0 296.001 2.62231 302.185 7.86693C308.369 13.1116 311.462 20.4601 311.462 29.9025C311.462 34.9235 310.539 39.3855 308.704 43.2986C306.859 47.2118 304.355 50.6472 301.192 53.5948C298.018 56.5525 294.45 58.9817 290.476 60.9027C287.09 62.5289 282.629 64.2974 277.114 66.2184C271.589 68.1394 265.698 70.0604 259.443 71.9814C253.178 73.9024 247.217 75.7828 241.549 77.6326C235.882 79.4824 231.28 81.068 227.741 82.3894C222.287 84.4628 217.695 87.0038 213.933 90.0327C210.182 93.0616 208.297 96.934 208.297 101.66C208.297 105.502 209.402 108.745 211.612 111.408C213.822 114.06 216.508 116.063 219.672 117.384C222.835 118.715 225.815 119.376 228.613 119.376C229.941 119.376 231.594 119.193 233.581 118.827C235.568 118.461 237.373 117.902 238.995 117.171C240.617 116.429 241.57 115.544 241.864 114.508C239.502 114.06 237.19 112.993 234.909 111.296C232.628 109.598 231.482 106.905 231.482 103.215C231.482 99.5259 232.658 96.873 235.021 94.7996C237.373 92.7363 240.242 91.6996 243.638 91.6996C247.034 91.6996 250.005 92.8074 252.144 95.0232C254.273 97.239 255.347 100.115 255.347 103.663C255.347 107.799 253.989 111.306 251.262 114.182C248.535 117.059 245.148 119.203 241.103 120.606C237.048 122.009 233.044 122.71 229.059 122.71C225.075 122.71 220.736 121.826 216.468 120.047C212.2 118.278 208.662 115.504 205.863 111.743C203.065 107.982 201.666 102.992 201.666 96.7917C201.666 91.6284 202.802 87.0445 205.093 83.0602C207.374 79.0759 210.801 75.5287 215.363 72.4286C219.925 69.3286 225.521 66.6656 232.151 64.4601C236.572 62.9863 241.945 61.36 248.281 59.5915C254.607 57.823 261.126 55.902 267.827 53.8285C274.529 51.7652 280.601 49.4783 286.056 46.9678C293.416 43.5731 298.424 40.1071 301.08 36.5599C303.736 33.0127 305.054 29.4044 305.054 25.7047C305.054 21.4257 303.878 17.6244 301.516 14.3007C299.154 10.9771 296.031 8.32431 292.128 6.33217C288.225 4.34003 283.987 3.34395 279.425 3.34395C277.661 3.34395 276.181 3.49641 275.005 3.79117C273.829 4.08593 273.089 4.60429 272.795 5.34626C274.853 6.38299 276.404 7.85677 277.438 9.77776C278.462 11.6988 278.989 13.6198 278.989 15.5408C278.989 18.6408 277.773 21.2224 275.35 23.2959C272.917 25.3693 270.007 26.3959 266.621 26.3959C263.823 26.3959 261.167 25.471 258.673 23.6313C256.169 21.7916 254.922 19.0168 254.922 15.3273C254.922 11.6378 256.209 8.46661 258.784 6.25086C261.359 4.03511 264.532 2.44952 268.284 1.49411C272.035 0.538692 275.684 0.05082 279.223 0.05082L279.212 0Z" fill="white"/>
<path id="Vector_3" d="M331.119 159.9V1.55508H351V159.9H331.119Z" fill="white"/>
</g>
<defs>
<clipPath id="clip0_122_64">
<rect width="351" height="163" fill="white"/>
</clipPath>
</defs>
</svg>
